# Blender 4.0.2
# www.blender.org
mtllib cubes.mtl
o CubeL
v -0.297205 -0.101242 -0.338146
v -0.297205 -0.101242 -0.338146
v -0.297205 -0.101242 -0.338146
v -0.297205 0.101242 -0.338146
v -0.297205 0.101242 -0.338146
v -0.297205 0.101242 -0.338146
v -0.297205 -0.101242 -0.540630
v -0.297205 -0.101242 -0.540630
v -0.297205 -0.101242 -0.540630
v -0.297205 0.101242 -0.540630
v -0.297205 0.101242 -0.540630
v -0.297205 0.101242 -0.540630
v -0.094721 -0.101242 -0.338146
v -0.094721 -0.101242 -0.338146
v -0.094721 -0.101242 -0.338146
v -0.094721 0.101242 -0.338146
v -0.094721 0.101242 -0.338146
v -0.094721 0.101242 -0.338146
v -0.094721 -0.101242 -0.540630
v -0.094721 -0.101242 -0.540630
v -0.094721 -0.101242 -0.540630
v -0.094721 0.101242 -0.540630
v -0.094721 0.101242 -0.540630
v -0.094721 0.101242 -0.540630
vn -1.0000 -0.0000 -0.0000
vn -0.0000 -0.0000 -1.0000
vn 1.0000 -0.0000 -0.0000
vn -0.0000 -0.0000 1.0000
vn -0.0000 -1.0000 -0.0000
vn -0.0000 1.0000 -0.0000
vt 0.375000 0.000000
vt 0.625000 0.000000
vt 0.625000 0.250000
vt 0.375000 0.250000
vt 0.625000 0.500000
vt 0.375000 0.500000
vt 0.625000 0.750000
vt 0.375000 0.750000
vt 0.625000 1.000000
vt 0.375000 1.000000
vt 0.125000 0.500000
vt 0.125000 0.750000
vt 0.875000 0.500000
vt 0.875000 0.750000
s 0
f 1/1/1 4/2/1 10/3/1
f 1/1/1 10/3/1 7/4/1
f 9/4/2 11/3/2 22/5/2
f 9/4/2 22/5/2 20/6/2
f 21/6/3 24/5/3 18/7/3
f 21/6/3 18/7/3 15/8/3
f 14/8/4 16/7/4 5/9/4
f 14/8/4 5/9/4 3/10/4
f 8/11/5 19/6/5 13/8/5
f 8/11/5 13/8/5 2/12/5
f 23/5/6 12/13/6 6/14/6
f 23/5/6 6/14/6 17/7/6
o CubeR
v 0.028454 0.048296 -0.338146
v 0.028454 0.048296 -0.338146
v 0.028454 0.048296 -0.338146
v 0.028454 0.250780 -0.338146
v 0.028454 0.250780 -0.338146
v 0.028454 0.250780 -0.338146
v 0.028454 0.048296 -0.540630
v 0.028454 0.048296 -0.540630
v 0.028454 0.048296 -0.540630
v 0.028454 0.250780 -0.540630
v 0.028454 0.250780 -0.540630
v 0.028454 0.250780 -0.540630
v 0.081363 0.048296 -0.338146
v 0.081363 0.048296 -0.338146
v 0.081363 0.048296 -0.338146
v 0.081363 0.250780 -0.338146
v 0.081363 0.250780 -0.338146
v 0.081363 0.250780 -0.338146
v 0.081363 0.048296 -0.540630
v 0.081363 0.048296 -0.540630
v 0.081363 0.048296 -0.540630
v 0.081363 0.250780 -0.540630
v 0.081363 0.250780 -0.540630
v 0.081363 0.250780 -0.540630
vn -1.0000 -0.0000 -0.0000
vn -0.0000 -0.0000 -1.0000
vn 1.0000 -0.0000 -0.0000
vn -0.0000 -0.0000 1.0000
vn -0.0000 -1.0000 -0.0000
vn -0.0000 1.0000 -0.0000
vt 0.375000 0.000000
vt 0.625000 0.000000
vt 0.625000 0.250000
vt 0.375000 0.250000
vt 0.625000 0.500000
vt 0.375000 0.500000
vt 0.625000 0.750000
vt 0.375000 0.750000
vt 0.625000 1.000000
vt 0.375000 1.000000
vt 0.125000 0.500000
vt 0.125000 0.750000
vt 0.875000 0.500000
vt 0.875000 0.750000
s 0
f 25/15/7 28/16/7 34/17/7
f 25/15/7 34/17/7 31/18/7
f 33/18/8 35/17/8 46/19/8
f 33/18/8 46/19/8 44/20/8
f 45/20/9 48/19/9 42/21/9
f 45/20/9 42/21/9 39/22/9
f 38/22/10 40/21/10 29/23/10
f 38/22/10 29/23/10 27/24/10
f 32/25/11 43/20/11 37/22/11
f 32/25/11 37/22/11 26/26/11
f 47/19/12 36/27/12 30/28/12
f 47/19/12 30/28/12 41/21/12
